<svg width="14" height="10" viewBox="0 0 14 10" fill="none" xmlns="http://www.w3.org/2000/svg">
<path d="M5.75625 9.27955C5.62499 9.27981 5.49496 9.25416 5.37363 9.20405C5.25231 9.15394 5.14207 9.08036 5.04925 8.98755L0.807252 4.74455C0.711678 4.65237 0.63542 4.54208 0.582926 4.42011C0.530433 4.29814 0.502756 4.16694 0.501509 4.03417C0.500262 3.90139 0.525471 3.76969 0.575665 3.64676C0.625859 3.52383 0.700033 3.41213 0.793858 3.31817C0.887684 3.22421 0.999282 3.14988 1.12214 3.09951C1.245 3.04915 1.37666 3.02375 1.50944 3.02481C1.64222 3.02587 1.77346 3.05336 1.8955 3.10568C2.01754 3.158 2.12794 3.2341 2.22025 3.32955L5.75525 6.86455L12.1203 0.501546C12.3078 0.313906 12.5621 0.208437 12.8274 0.208344C13.0927 0.20825 13.3471 0.313538 13.5348 0.501046C13.7224 0.688554 13.8279 0.942923 13.828 1.20819C13.828 1.47346 13.7228 1.72791 13.5353 1.91555L6.46325 8.98755C6.37043 9.08036 6.26019 9.15394 6.13887 9.20405C6.01754 9.25416 5.88752 9.27981 5.75625 9.27955Z" fill="#2FAB73"/>
</svg>
